<svg xmlns="http://www.w3.org/2000/svg" width="1200" height="1600" viewBox="0 0 1200 1600" role="img" aria-label="Abstract portrait  Customer Success">
  <defs>
    <linearGradient id="bg" x1="0" y1="0" x2="1" y2="1">
      <stop offset="0" stop-color="#020617"/>
      <stop offset="0.58" stop-color="#0a0f1f"/>
      <stop offset="1" stop-color="#020617"/>
    </linearGradient>
    <radialGradient id="g1" cx="42%" cy="22%" r="78%">
      <stop offset="0" stop-color="#c084fc" stop-opacity="0.52"/>
      <stop offset="0.55" stop-color="#a855f7" stop-opacity="0.18"/>
      <stop offset="1" stop-color="#7c3aed" stop-opacity="0"/>
    </radialGradient>
    <radialGradient id="g2" cx="72%" cy="40%" r="60%">
      <stop offset="0" stop-color="#67e8f9" stop-opacity="0.12"/>
      <stop offset="1" stop-color="#67e8f9" stop-opacity="0"/>
    </radialGradient>
    <filter id="glow" x="-20%" y="-20%" width="140%" height="140%" color-interpolation-filters="sRGB">
      <feGaussianBlur stdDeviation="16" result="b"/>
      <feMerge><feMergeNode in="b"/><feMergeNode in="SourceGraphic"/></feMerge>
    </filter>
  </defs>

  <rect width="1200" height="1600" fill="url(#bg)"/>
  <rect width="1200" height="1600" fill="url(#g1)"/>
  <rect width="1200" height="1600" fill="url(#g2)"/>

  <g opacity="0.18" fill="none" stroke="#fff" stroke-width="2">
    <path d="M-40 980c180-80 300-80 480 0s300 80 480 0 300-80 480 0" opacity="0.06"/>
    <path d="M-40 1140c180-60 300-60 480 0s300 60 480 0 300-60 480 0" opacity="0.05"/>
  </g>

  <g filter="url(#glow)">
    <circle cx="600" cy="560" r="410" fill="none" stroke="#e9d5ff" stroke-opacity="0.14" stroke-width="3"/>
    <circle cx="600" cy="560" r="330" fill="none" stroke="#c084fc" stroke-opacity="0.10" stroke-width="2"/>

    <path d="M340 1500c40-290 198-410 260-446 62 36 220 156 260 446" fill="#ffffff" opacity="0.06"/>
    <path d="M600 248c-150 0-250 114-250 254 0 152 84 236 146 282 38 28 70 44 104 44s66-16 104-44c62-46 146-130 146-282 0-140-100-254-250-254z" fill="#0a0f1f" opacity="0.94"/>

    <!-- Headset -->
    <path d="M450 610c0-130 76-220 150-252" stroke="#c084fc" stroke-opacity="0.30" stroke-width="4" stroke-linecap="round" fill="none"/>
    <path d="M750 610c0-130-76-220-150-252" stroke="#c084fc" stroke-opacity="0.30" stroke-width="4" stroke-linecap="round" fill="none"/>
    <rect x="410" y="610" width="64" height="120" rx="18" fill="#0a0f1f" stroke="#e9d5ff" stroke-opacity="0.20"/>
    <rect x="726" y="610" width="64" height="120" rx="18" fill="#0a0f1f" stroke="#e9d5ff" stroke-opacity="0.20"/>

    <g opacity="0.85">
      <rect x="140" y="260" width="260" height="76" rx="16" fill="#0a0f1f" stroke="#c084fc" stroke-opacity="0.22"/>
      <path d="M170 300h120" stroke="#c084fc" stroke-opacity="0.32" stroke-width="3" stroke-linecap="round"/>
      <path d="M170 322h180" stroke="#fff" stroke-opacity="0.12" stroke-width="3" stroke-linecap="round"/>

      <rect x="820" y="340" width="260" height="76" rx="16" fill="#0a0f1f" stroke="#67e8f9" stroke-opacity="0.14"/>
      <path d="M850 380h180" stroke="#67e8f9" stroke-opacity="0.22" stroke-width="3" stroke-linecap="round"/>
      <path d="M850 402h120" stroke="#fff" stroke-opacity="0.12" stroke-width="3" stroke-linecap="round"/>
    </g>
  </g>

  <rect width="1200" height="1600" fill="#000" opacity="0.18"/>
</svg>
