<svg xmlns="http://www.w3.org/2000/svg" width="1200" height="1600" viewBox="0 0 1200 1600" role="img" aria-label="Abstract portrait  Real Estate">
  <defs>
    <linearGradient id="bg" x1="0" y1="0" x2="1" y2="1">
      <stop offset="0" stop-color="#020617"/>
      <stop offset="0.6" stop-color="#071018"/>
      <stop offset="1" stop-color="#020617"/>
    </linearGradient>
    <radialGradient id="g1" cx="55%" cy="22%" r="78%">
      <stop offset="0" stop-color="#34d399" stop-opacity="0.50"/>
      <stop offset="0.55" stop-color="#10b981" stop-opacity="0.18"/>
      <stop offset="1" stop-color="#059669" stop-opacity="0"/>
    </radialGradient>
    <radialGradient id="g2" cx="30%" cy="35%" r="60%">
      <stop offset="0" stop-color="#fef3c7" stop-opacity="0.12"/>
      <stop offset="1" stop-color="#fef3c7" stop-opacity="0"/>
    </radialGradient>
    <filter id="glow" x="-20%" y="-20%" width="140%" height="140%" color-interpolation-filters="sRGB">
      <feGaussianBlur stdDeviation="16" result="b"/>
      <feMerge><feMergeNode in="b"/><feMergeNode in="SourceGraphic"/></feMerge>
    </filter>
  </defs>

  <rect width="1200" height="1600" fill="url(#bg)"/>
  <rect width="1200" height="1600" fill="url(#g1)"/>
  <rect width="1200" height="1600" fill="url(#g2)"/>

  <g opacity="0.16" stroke="#fff" stroke-linecap="round" stroke-linejoin="round">
    <path d="M340 600l260-220 260 220" opacity="0.14" stroke-width="2"/>
    <path d="M340 600v420h520V600" opacity="0.10"/>
    <path d="M500 1020V820h200v200" opacity="0.10"/>
    <path d="M120 1240h960" opacity="0.08"/>
    <path d="M210 1260V600" opacity="0.07"/>
    <path d="M990 1260V600" opacity="0.07"/>
  </g>

  <g filter="url(#glow)">
    <circle cx="600" cy="560" r="410" fill="none" stroke="#6ee7b7" stroke-opacity="0.16" stroke-width="3"/>
    <circle cx="600" cy="560" r="330" fill="none" stroke="#34d399" stroke-opacity="0.12" stroke-width="2"/>

    <path d="M350 1500c36-270 196-400 250-432 54 32 214 162 250 432" fill="#ffffff" opacity="0.06"/>
    <path d="M600 250c-146 0-246 112-246 252 0 148 78 232 142 280 38 28 72 46 104 46s66-18 104-46c64-48 142-132 142-280 0-140-100-252-246-252z" fill="#06121a" opacity="0.92"/>

    <path d="M420 560h360" stroke="#a7f3d0" stroke-opacity="0.25" stroke-width="2"/>
    <path d="M460 560c56-34 106-50 154-50s98 16 154 50" fill="none" stroke="#34d399" stroke-opacity="0.20" stroke-width="2"/>
    <circle cx="520" cy="560" r="7" fill="#a7f3d0" opacity="0.40"/>
    <circle cx="680" cy="560" r="7" fill="#a7f3d0" opacity="0.40"/>

    <g opacity="0.85">
      <rect x="120" y="250" width="240" height="76" rx="16" fill="#071018" stroke="#34d399" stroke-opacity="0.22"/>
      <path d="M150 290h110" stroke="#34d399" stroke-opacity="0.35" stroke-width="3" stroke-linecap="round"/>
      <path d="M150 312h160" stroke="#fff" stroke-opacity="0.12" stroke-width="3" stroke-linecap="round"/>

      <rect x="850" y="330" width="240" height="76" rx="16" fill="#071018" stroke="#a7f3d0" stroke-opacity="0.18"/>
      <path d="M880 370h160" stroke="#a7f3d0" stroke-opacity="0.30" stroke-width="3" stroke-linecap="round"/>
      <path d="M880 392h110" stroke="#fff" stroke-opacity="0.12" stroke-width="3" stroke-linecap="round"/>
    </g>
  </g>

  <rect width="1200" height="1600" fill="#000" opacity="0.18"/>
</svg>
