<svg xmlns="http://www.w3.org/2000/svg" width="1200" height="1600" viewBox="0 0 1200 1600" role="img" aria-label="Abstract portrait  Sales">
  <defs>
    <linearGradient id="bg" x1="0" y1="0" x2="1" y2="1">
      <stop offset="0" stop-color="#020617"/>
      <stop offset="0.55" stop-color="#0b1220"/>
      <stop offset="1" stop-color="#050913"/>
    </linearGradient>
    <radialGradient id="g1" cx="35%" cy="20%" r="75%">
      <stop offset="0" stop-color="#60a5fa" stop-opacity="0.55"/>
      <stop offset="0.55" stop-color="#2563eb" stop-opacity="0.18"/>
      <stop offset="1" stop-color="#1d4ed8" stop-opacity="0"/>
    </radialGradient>
    <radialGradient id="g2" cx="68%" cy="36%" r="60%">
      <stop offset="0" stop-color="#ffffff" stop-opacity="0.16"/>
      <stop offset="1" stop-color="#ffffff" stop-opacity="0"/>
    </radialGradient>
    <filter id="glow" x="-20%" y="-20%" width="140%" height="140%" color-interpolation-filters="sRGB">
      <feGaussianBlur stdDeviation="18" result="b"/>
      <feMerge><feMergeNode in="b"/><feMergeNode in="SourceGraphic"/></feMerge>
    </filter>
  </defs>

  <rect width="1200" height="1600" fill="url(#bg)"/>
  <rect width="1200" height="1600" fill="url(#g1)"/>
  <rect width="1200" height="1600" fill="url(#g2)"/>

  <g opacity="0.14" stroke="#fff">
    <path d="M0 320H1200" opacity="0.08"/>
    <path d="M0 640H1200" opacity="0.08"/>
    <path d="M0 960H1200" opacity="0.08"/>
    <path d="M0 1280H1200" opacity="0.08"/>
    <path d="M240 0V1600" opacity="0.08"/>
    <path d="M480 0V1600" opacity="0.08"/>
    <path d="M720 0V1600" opacity="0.08"/>
    <path d="M960 0V1600" opacity="0.08"/>
  </g>

  <g filter="url(#glow)">
    <circle cx="600" cy="560" r="420" fill="none" stroke="#93c5fd" stroke-opacity="0.18" stroke-width="3"/>
    <circle cx="600" cy="560" r="330" fill="none" stroke="#60a5fa" stroke-opacity="0.12" stroke-width="2"/>

    <path d="M380 1500c40-260 190-380 220-400 30 20 180 140 220 400" fill="#ffffff" opacity="0.07"/>
    <path d="M600 260c-150 0-250 110-250 250 0 150 82 230 140 270 40 28 74 44 110 44s70-16 110-44c58-40 140-120 140-270 0-140-100-250-250-250z" fill="#0b1220" opacity="0.92"/>

    <path d="M380 560h440" stroke="#93c5fd" stroke-opacity="0.25" stroke-width="2"/>
    <path d="M420 560c60-40 120-60 180-60s120 20 180 60" fill="none" stroke="#60a5fa" stroke-opacity="0.22" stroke-width="2"/>
    <circle cx="520" cy="560" r="8" fill="#93c5fd" opacity="0.45"/>
    <circle cx="680" cy="560" r="8" fill="#93c5fd" opacity="0.45"/>

    <path d="M520 1105l80 110 80-110" fill="none" stroke="#93c5fd" stroke-opacity="0.35" stroke-width="3"/>
    <path d="M600 1220l-34 64 34 54 34-54z" fill="#2563eb" opacity="0.65"/>

    <g opacity="0.85">
      <rect x="130" y="210" width="220" height="74" rx="16" fill="#0b1220" stroke="#93c5fd" stroke-opacity="0.25"/>
      <path d="M160 247h92" stroke="#93c5fd" stroke-opacity="0.35" stroke-width="3" stroke-linecap="round"/>
      <path d="M160 268h140" stroke="#fff" stroke-opacity="0.12" stroke-width="3" stroke-linecap="round"/>

      <rect x="850" y="300" width="220" height="74" rx="16" fill="#0b1220" stroke="#60a5fa" stroke-opacity="0.22"/>
      <path d="M880 337h140" stroke="#60a5fa" stroke-opacity="0.35" stroke-width="3" stroke-linecap="round"/>
      <path d="M880 358h92" stroke="#fff" stroke-opacity="0.12" stroke-width="3" stroke-linecap="round"/>
    </g>
  </g>

  <rect width="1200" height="1600" fill="#000" opacity="0.18"/>
</svg>
